<svg version="1.1" viewBox="0.0 0.0 100.0 100.0" fill="none" stroke="none" stroke-linecap="square" stroke-miterlimit="10" xmlns:xlink="http://www.w3.org/1999/xlink" xmlns="http://www.w3.org/2000/svg"><clipPath id="p.0"><path d="m0 0l100.0 0l0 100.0l-100.0 0l0 -100.0z" clip-rule="nonzero"/></clipPath><g clip-path="url(#p.0)"><path fill="#000000" fill-opacity="0.0" d="m0 0l100.0 0l0 100.0l-100.0 0z" fill-rule="evenodd"/><path fill="#000000" fill-opacity="0.0" d="m48.67084 66.93438l-30.992126 -22.173225" fill-rule="evenodd"/><path stroke="#b7b7b7" stroke-width="3.0" stroke-linejoin="round" stroke-linecap="butt" d="m48.67084 66.93438l-30.992126 -22.173225" fill-rule="evenodd"/><path fill="#000000" fill-opacity="0.0" d="m16.36483 45.354332l33.54331 -22.141733" fill-rule="evenodd"/><path stroke="#b7b7b7" stroke-width="3.0" stroke-linejoin="round" stroke-linecap="butt" d="m16.36483 45.354332l33.54331 -22.141733" fill-rule="evenodd"/><path fill="#000000" fill-opacity="0.0" d="m45.40945 67.61529l34.51968 -6.047241" fill-rule="evenodd"/><path stroke="#0000ff" stroke-width="3.0" stroke-linejoin="round" stroke-linecap="butt" d="m45.40945 67.61529l34.51968 -6.047241" fill-rule="evenodd"/><path fill="#000000" fill-opacity="0.0" d="m81.055115 61.504456l-29.543304 -10.70866" fill-rule="evenodd"/><path stroke="#0000ff" stroke-width="3.0" stroke-linejoin="round" stroke-linecap="butt" d="m81.055115 61.504456l-29.543304 -10.70866" fill-rule="evenodd"/><path fill="#0000ff" d="m43.031498 14.146981l13.937004 0l0 9.749082l-6.968502 2.437271l-6.968502 -2.437271z" fill-rule="evenodd"/><path stroke="#0000ff" stroke-width="1.0" stroke-linejoin="round" stroke-linecap="butt" d="m43.031498 14.146981l13.937004 0l0 9.749082l-6.968502 2.437271l-6.968502 -2.437271z" fill-rule="evenodd"/><path fill="#0000ff" d="m43.031498 33.084812l13.937004 0l0 19.359337l-6.968502 4.839836l-6.968502 -4.839836z" fill-rule="evenodd"/><path stroke="#0000ff" stroke-width="1.0" stroke-linejoin="round" stroke-linecap="butt" d="m43.031498 33.084812l13.937004 0l0 19.359337l-6.968502 4.839836l-6.968502 -4.839836z" fill-rule="evenodd"/><path fill="#0000ff" d="m43.031498 65.603676l13.937004 0l0 9.749077l-6.968502 2.437271l-6.968502 -2.437271z" fill-rule="evenodd"/><path stroke="#0000ff" stroke-width="1.0" stroke-linejoin="round" stroke-linecap="butt" d="m43.031498 65.603676l13.937004 0l0 9.749077l-6.968502 2.437271l-6.968502 -2.437271z" fill-rule="evenodd"/><path fill="#000000" fill-opacity="0.0" d="m46.868767 -6.485564l41.007874 0l0 38.519688l-41.007874 0z" fill-rule="evenodd"/><path fill="#ff0000" d="m63.056267 20.684433q-1.25 0 -1.890625 -0.671875l-0.171875 0.421875l-3.46875 0l5.375 -12.578124l3.640625 -0.46875l-4.578125 10.734374q0.1875 0.15625 0.609375 0.15625q0.859375 0 1.84375 -1.109375q0.984375 -1.125 1.796875 -2.968749q0.828125 -1.859375 1.234375 -3.75q0.359375 -1.6875 -0.109375 -2.421875q-0.453125 -0.734375 -1.5625 -0.734375q-1.3125 0 -2.453125 0.515625q-1.125 0.5 -1.90625 1.4375q-0.78125 0.9375 -1.046875 2.21875q-0.125 0.59375 -0.046875 0.859375q0.078125 0.265625 -0.03125 0.78125q-1.46875 0 -2.0 -0.5q-0.53125 -0.515625 -0.3125 -1.609375q0.3125 -1.40625 1.59375 -2.625q1.28125 -1.234375 3.109375 -1.953125q1.828125 -0.734375 3.75 -0.734375q2.75 0 3.703125 1.640625q0.953125 1.640625 0.421875 4.109375q-0.453125 2.1875 -1.65625 4.328125q-1.1875 2.124999 -2.765625 3.531249q-1.5625 1.390625 -3.078125 1.390625zm8.212845 -0.140625q-1.546875 0 -2.25 -0.828125q-0.703125 -0.828125 -0.34375 -2.515625q0.28125 -1.343749 1.15625 -2.953124q0.875 -1.625 2.359375 -2.84375q1.484375 -1.21875 3.390625 -1.21875q2.421875 0 1.96875 2.171875q-0.25 1.15625 -1.109375 2.125q-0.84375 0.953125 -2.046875 1.531249q-1.1875 0.578125 -2.0625 0.625q-0.078125 0.234375 -0.109375 0.40625q-0.15625 0.75 0 0.96875q0.171875 0.21875 0.71875 0.21875q0.90625 0 1.640625 -0.421875q0.734375 -0.421875 1.890625 -1.46875l1.46875 0q-3.390625 4.203125 -6.671875 4.203125zm1.65625 -5.546874q0.109375 -0.015625 0.734375 -0.390625q0.640625 -0.390625 1.09375 -1.0q0.46875 -0.625 0.625 -1.296875q0.078125 -0.375 -0.015625 -0.375q-0.453125 0 -1.25 1.046875q-0.796875 1.046875 -1.1875 2.015625z" fill-rule="nonzero"/><path fill="#000000" fill-opacity="0.0" d="m46.868767 37.272964l33.039368 -9.795275" fill-rule="evenodd"/><path stroke="#0000ff" stroke-width="3.0" stroke-linejoin="round" stroke-linecap="butt" d="m46.868767 37.272964l33.039368 -9.795275" fill-rule="evenodd"/><path fill="#000000" fill-opacity="0.0" d="m81.06562 27.404707l-31.181107 -4.8818893" fill-rule="evenodd"/><path stroke="#0000ff" stroke-width="3.0" stroke-linejoin="round" stroke-linecap="butt" d="m81.06562 27.404707l-31.181107 -4.8818893" fill-rule="evenodd"/><path fill="#000000" fill-opacity="0.0" d="m46.868767 23.217848l36.377953 0l0 38.519684l-36.377953 0z" fill-rule="evenodd"/><path fill="#ff0000" d="m63.181267 37.55972q-0.78125 0.28125 -1.65625 1.234375q-0.859375 0.953125 -1.15625 2.375q-0.125 0.59375 -0.046875 0.859375q0.078125 0.265625 -0.03125 0.78125q-1.53125 0 -2.03125 -0.515625q-0.5 -0.53125 -0.265625 -1.671875q0.296875 -1.328125 1.609375 -2.546875q1.3125 -1.21875 3.0625 -1.953125q1.765625 -0.734375 3.375 -0.734375q0.28125 0 1.109375 0.078125l-2.71875 11.8125l6.15625 -11.796875l2.109375 0l-8.578125 14.65625l-3.3125 0l2.375 -12.578125zm9.832977 2.25q-0.765625 0 -1.1875 -0.53125q-0.421875 -0.546875 -0.25 -1.328125q0.15625 -0.765625 0.8125 -1.3125q0.65625 -0.546875 1.421875 -0.546875q0.78125 0 1.203125 0.546875q0.4375 0.546875 0.28125 1.3125q-0.171875 0.78125 -0.84375 1.328125q-0.65625 0.53125 -1.4375 0.53125zm-3.46875 10.4375q-1.046875 0 -1.578125 -0.65625q-0.515625 -0.671875 -0.25 -1.953125q0.109375 -0.5 0.453125 -1.296875l2.65625 -6.28125l3.453125 0l-2.90625 6.8125q-0.109375 0.234375 -0.15625 0.5q-0.046875 0.203125 0 0.265625q0.046875 0.046875 0.3125 0.046875q0.390625 0 0.84375 -0.359375q0.46875 -0.375 0.921875 -1.28125l1.59375 0q-1.46875 2.625 -2.828125 3.421875q-1.34375 0.78125 -2.515625 0.78125z" fill-rule="nonzero"/><path fill="#000000" fill-opacity="0.0" d="m43.14173 55.217846l40.09449 0l0 38.519688l-40.09449 0z" fill-rule="evenodd"/><path fill="#ff0000" d="m57.032356 82.46597q-1.265625 0 -2.15625 -0.4375q-0.875 -0.453125 -1.25 -1.28125q-0.375 -0.828125 -0.140625 -1.90625q0.1875 -0.921875 0.734375 -1.671875q0.546875 -0.75 1.3125 -1.203125q0.78125 -0.453125 1.59375 -0.453125q0.78125 0 1.25 0.40625q0.46875 0.40625 0.46875 1.578125q-1.296875 0 -1.84375 0.40625q-0.546875 0.40625 -0.6875 1.109375q-0.140625 0.65625 0.140625 1.03125q0.296875 0.375 0.9375 0.375q0.828125 0 1.484375 -0.546875q0.65625 -0.5625 0.84375 -1.40625q0.15625 -0.765625 -0.140625 -1.5q-0.28125 -0.734375 -1.015625 -1.8125q-0.765625 -1.1875 -1.140625 -2.078125q-0.359375 -0.890625 -0.125 -1.984375q0.234375 -1.09375 1.03125 -1.953125q0.796875 -0.859375 1.921875 -1.34375q1.140625 -0.484375 2.421875 -0.484375q1.625 0 2.484375 0.796875q0.859375 0.796875 0.5625 2.1875q-0.1875 0.90625 -0.8125 1.515625q-0.625 0.609375 -1.421875 0.609375q-0.90625 0 -1.4375 -1.03125q0.65625 -0.4375 0.90625 -0.78125q0.25 -0.359375 0.328125 -0.734375q0.09375 -0.4375 -0.109375 -0.671875q-0.203125 -0.25 -0.65625 -0.25q-0.578125 0 -1.046875 0.421875q-0.453125 0.40625 -0.59375 1.078125q-0.140625 0.640625 0.125 1.234375q0.265625 0.578125 0.96875 1.5625q0.5625 0.796875 0.921875 1.40625q0.359375 0.609375 0.53125 1.421875q0.171875 0.8125 -0.03125 1.765625q-0.265625 1.3125 -1.21875 2.375q-0.953125 1.0625 -2.3125 1.65625q-1.359375 0.59375 -2.828125 0.59375zm9.618439 0q-1.859375 0 -2.625 -1.046875q-0.75 -1.046875 -0.421875 -2.609375q0.234375 -1.078125 0.90625 -2.15625q0.6875 -1.09375 1.703125 -1.921875q1.03125 -0.828125 1.515625 -0.890625q-0.109375 -0.015625 -0.296875 -0.6875q-0.171875 -0.671875 -0.015625 -1.40625q0.234375 -1.0625 1.03125 -2.078125q0.796875 -1.03125 1.953125 -1.671875q1.171875 -0.640625 2.421875 -0.640625q1.3125 0 2.03125 0.71875q0.71875 0.71875 0.4375 1.984375q-0.203125 0.953125 -0.859375 1.640625q-0.640625 0.6875 -1.390625 0.6875q-0.6875 0 -1.25 -1.09375q0.71875 -0.21875 0.984375 -0.609375q0.28125 -0.390625 0.375 -0.8125q0.078125 -0.359375 -0.078125 -0.5q-0.15625 -0.15625 -0.4375 -0.15625q-0.40625 0 -0.828125 0.3125q-0.421875 0.296875 -0.75 0.828125q-0.3125 0.53125 -0.4375 1.109375q-0.15625 0.78125 0.109375 1.359375q0.28125 0.5625 2.5 1.171875q-2.5 0.515625 -3.34375 1.1875q-0.84375 0.65625 -1.4375 1.546875q-0.59375 0.890625 -0.75 1.6875q-0.15625 0.703125 0.09375 1.109375q0.25 0.40625 0.984375 0.40625q0.828125 0 1.859375 -0.46875q1.03125 -0.46875 1.84375 -1.546875l1.0 0.484375q-1.375 2.0625 -3.1875 3.0625q-1.8125 1.0 -3.640625 1.0z" fill-rule="nonzero"/></g></svg>