<svg version="1.1" viewBox="0.0 0.0 100.0 100.0" fill="none" stroke="none" stroke-linecap="square" stroke-miterlimit="10" xmlns:xlink="http://www.w3.org/1999/xlink" xmlns="http://www.w3.org/2000/svg"><clipPath id="p.0"><path d="m0 0l100.0 0l0 100.0l-100.0 0l0 -100.0z" clip-rule="nonzero"/></clipPath><g clip-path="url(#p.0)"><path fill="#000000" fill-opacity="0.0" d="m0 0l100.0 0l0 100.0l-100.0 0z" fill-rule="evenodd"/><path fill="#000000" fill-opacity="0.0" d="m75.42913 63.07588l-22.173225 30.992123" fill-rule="evenodd"/><path stroke="#b7b7b7" stroke-width="3.0" stroke-linejoin="round" stroke-linecap="butt" d="m75.42913 63.07588l-22.173225 30.992123" fill-rule="evenodd"/><path fill="#000000" fill-opacity="0.0" d="m53.849083 95.38189l-22.141733 -33.54331" fill-rule="evenodd"/><path stroke="#b7b7b7" stroke-width="3.0" stroke-linejoin="round" stroke-linecap="butt" d="m53.849083 95.38189l-22.141733 -33.54331" fill-rule="evenodd"/><path fill="#000000" fill-opacity="0.0" d="m76.11004 66.33727l-6.047241 -34.519688" fill-rule="evenodd"/><path stroke="#0000ff" stroke-width="3.0" stroke-linejoin="round" stroke-linecap="butt" d="m76.11004 66.33727l-6.047241 -34.519688" fill-rule="evenodd"/><path fill="#000000" fill-opacity="0.0" d="m69.99921 30.6916l-10.70866 29.543308" fill-rule="evenodd"/><path stroke="#0000ff" stroke-width="3.0" stroke-linejoin="round" stroke-linecap="butt" d="m69.99921 30.6916l-10.70866 29.543308" fill-rule="evenodd"/><path fill="#0000ff" d="m22.641733 68.715225l0 -13.937012l9.749079 0l2.437271 6.968506l-2.437271 6.968506z" fill-rule="evenodd"/><path stroke="#0000ff" stroke-width="1.0" stroke-linejoin="round" stroke-linecap="butt" d="m22.641733 68.715225l0 -13.937012l9.749079 0l2.437271 6.968506l-2.437271 6.968506z" fill-rule="evenodd"/><path fill="#0000ff" d="m41.579563 68.715225l0 -13.937012l19.359337 0l4.8398323 6.968506l-4.8398323 6.968506z" fill-rule="evenodd"/><path stroke="#0000ff" stroke-width="1.0" stroke-linejoin="round" stroke-linecap="butt" d="m41.579563 68.715225l0 -13.937012l19.359337 0l4.8398323 6.968506l-4.8398323 6.968506z" fill-rule="evenodd"/><path fill="#0000ff" d="m74.09843 68.715225l0 -13.937012l9.749077 0l2.437271 6.968506l-2.437271 6.968506z" fill-rule="evenodd"/><path stroke="#0000ff" stroke-width="1.0" stroke-linejoin="round" stroke-linecap="butt" d="m74.09843 68.715225l0 -13.937012l9.749077 0l2.437271 6.968506l-2.437271 6.968506z" fill-rule="evenodd"/><path fill="#000000" fill-opacity="0.0" d="m0.76509184 25.114174l41.007874 0l0 38.519684l-41.007874 0z" fill-rule="evenodd"/><path fill="#ff0000" d="m16.999466 52.284172q-1.249999 0 -2.031249 -0.671875l-0.078125 0.421875l-3.46875 0l2.703125 -12.578125l3.546874 -0.46875l-2.296874 10.734375q0.21875 0.15625 0.64062405 0.15625q0.859375 0 1.59375 -1.109375q0.75 -1.125 1.171875 -2.96875q0.4375 -1.859375 0.4375 -3.75q0 -1.6875 -0.625 -2.421875q-0.609375 -0.734375 -1.71875 -0.734375q-1.312499 0 -2.343749 0.515625q-1.015625 0.5 -1.59375 1.4375q-0.578125 0.9375 -0.578125 2.21875q0 0.59375 0.125 0.859375q0.140625 0.265625 0.140625 0.78125q-1.46875 0 -2.109375 -0.5q-0.640625 -0.515625 -0.640625 -1.609375q0 -1.40625 1.015625 -2.625q1.03125 -1.234375 2.703125 -1.953125q1.671875 -0.734375 3.593749 -0.734375q2.75 0 4.046875 1.640625q1.3125 1.640625 1.3125 4.109375q0 2.1875 -0.75 4.328125q-0.734375 2.125 -2.015625 3.53125q-1.265625 1.390625 -2.78125 1.390625zm8.181595 -0.140625q-1.546875 0 -2.421875 -0.828125q-0.875 -0.828125 -0.875 -2.515625q0 -1.34375 0.53125 -2.953125q0.53125 -1.625 1.75 -2.84375q1.234375 -1.21875 3.140625 -1.21875q2.421875 0 2.421875 2.171875q0 1.15625 -0.65625 2.125q-0.640625 0.953125 -1.71875 1.53125q-1.0625 0.578125 -1.9375 0.625q-0.015625 0.234375 -0.015625 0.40625q0 0.75 0.203125 0.96875q0.21875 0.21875 0.765625 0.21875q0.90625 0 1.546875 -0.421875q0.65625 -0.421875 1.578125 -1.46875l1.46875 0q-2.5 4.203125 -5.78125 4.203125zm0.484375 -5.546875q0.109375 -0.015625 0.65625 -0.390625q0.546875 -0.390625 0.875 -1.0q0.34375 -0.625 0.34375 -1.296875q0 -0.375 -0.09375 -0.375q-0.453125 0 -1.03125 1.046875q-0.5625 1.046875 -0.75 2.015625z" fill-rule="nonzero"/><path fill="#000000" fill-opacity="0.0" d="m45.767715 64.87795l-9.795273 -33.039368" fill-rule="evenodd"/><path stroke="#0000ff" stroke-width="3.0" stroke-linejoin="round" stroke-linecap="butt" d="m45.767715 64.87795l-9.795273 -33.039368" fill-rule="evenodd"/><path fill="#000000" fill-opacity="0.0" d="m35.899456 30.681103l-4.8818874 31.181103" fill-rule="evenodd"/><path stroke="#0000ff" stroke-width="3.0" stroke-linejoin="round" stroke-linecap="butt" d="m35.899456 30.681103l-4.8818874 31.181103" fill-rule="evenodd"/><path fill="#000000" fill-opacity="0.0" d="m32.78478 25.855642l36.37795 0l0 40.094482l-36.37795 0z" fill-rule="evenodd"/><path fill="#ff0000" d="m46.425404 40.197514q-0.71875 0.28125 -1.390625 1.234375q-0.65625 0.953125 -0.65625 2.375q0 0.59375 0.125 0.859375q0.140625 0.265625 0.140625 0.78125q-1.53125 0 -2.140625 -0.515625q-0.609375 -0.53125 -0.609375 -1.671875q0 -1.328125 1.046875 -2.546875q1.0625 -1.21875 2.65625 -1.953125q1.609375 -0.734375 3.21875 -0.734375q0.28125 0 1.125 0.078125l-0.203125 11.8125l3.65625 -11.796875l2.109375 0l-5.46875 14.65625l-3.3125 0l-0.296875 -12.578125zm10.317352 2.25q-0.765625 0 -1.3125 -0.53125q-0.53125 -0.546875 -0.53125 -1.328125q0 -0.765625 0.53125 -1.3125q0.546875 -0.546875 1.3125 -0.546875q0.78125 0 1.328125 0.546875q0.546875 0.546875 0.546875 1.3125q0 0.78125 -0.546875 1.328125q-0.546875 0.53125 -1.328125 0.53125zm-1.265625 10.4375q-1.046875 0 -1.71875 -0.65625q-0.65625 -0.671875 -0.65625 -1.953125q0 -0.5 0.171875 -1.296875l1.328125 -6.28125l3.453125 0l-1.453125 6.8125q-0.0625 0.234375 -0.0625 0.5q0 0.203125 0.0625 0.265625q0.0625 0.046875 0.328125 0.046875q0.390625 0 0.765625 -0.359375q0.390625 -0.375 0.640625 -1.28125l1.59375 0q-0.90625 2.625 -2.09375 3.421875q-1.1875 0.78125 -2.359375 0.78125z" fill-rule="nonzero"/><path fill="#000000" fill-opacity="0.0" d="m64.24147 25.855642l42.015747 0l0 41.95275l-42.015747 0z" fill-rule="evenodd"/><path fill="#ff0000" d="m78.194595 53.103767q-1.265625 0 -2.25 -0.4375q-0.96875 -0.453125 -1.515625 -1.28125q-0.546875 -0.828125 -0.546875 -1.90625q0 -0.921875 0.375 -1.671875q0.390625 -0.75 1.0625 -1.203125q0.6875 -0.453125 1.5 -0.453125q0.78125 0 1.328125 0.40625q0.5625 0.40625 0.8125 1.578125q-1.296875 0 -1.765625 0.40625q-0.453125 0.40625 -0.453125 1.109375q0 0.65625 0.375 1.03125q0.375 0.375 1.015625 0.375q0.828125 0 1.359375 -0.546875q0.546875 -0.5625 0.546875 -1.40625q0 -0.765625 -0.453125 -1.5q-0.4375 -0.734375 -1.40625 -1.8125q-1.015625 -1.1875 -1.578125 -2.078125q-0.546875 -0.890625 -0.546875 -1.984375q0 -1.09375 0.609375 -1.953125q0.609375 -0.859375 1.640625 -1.34375q1.03125 -0.484375 2.3125 -0.484375q1.625 0 2.65625 0.796875q1.03125 0.796875 1.03125 2.1875q0 0.90625 -0.5 1.515625q-0.484375 0.609375 -1.28125 0.609375q-0.90625 0 -1.65625 -1.03125q0.5625 -0.4375 0.734375 -0.78125q0.171875 -0.359375 0.171875 -0.734375q0 -0.4375 -0.25 -0.671875q-0.25 -0.25 -0.703125 -0.25q-0.578125 0 -0.953125 0.421875q-0.375 0.40625 -0.375 1.078125q0 0.640625 0.390625 1.234375q0.390625 0.578125 1.296875 1.5625q0.734375 0.796875 1.21875 1.40625q0.484375 0.609375 0.828125 1.421875q0.359375 0.8125 0.359375 1.765625q0 1.3125 -0.734375 2.375q-0.71875 1.0625 -1.953125 1.65625q-1.234375 0.59375 -2.703125 0.59375zm9.618439 0q-1.859375 0 -2.84375 -1.046875q-0.96875 -1.046875 -0.96875 -2.609375q0 -1.078125 0.453125 -2.15625q0.453125 -1.09375 1.296875 -1.921875q0.84375 -0.828125 1.3125 -0.890625q-0.109375 -0.015625 -0.4375 -0.6875q-0.3125 -0.671875 -0.3125 -1.40625q0 -1.0625 0.578125 -2.078125q0.578125 -1.03125 1.609375 -1.671875q1.03125 -0.640625 2.28125 -0.640625q1.3125 0 2.171875 0.71875q0.875 0.71875 0.875 1.984375q0 0.953125 -0.515625 1.640625q-0.5 0.6875 -1.25 0.6875q-0.6875 0 -1.484375 -1.09375q0.6875 -0.21875 0.875 -0.609375q0.1875 -0.390625 0.1875 -0.8125q0 -0.359375 -0.1875 -0.5q-0.1875 -0.15625 -0.46875 -0.15625q-0.40625 0 -0.765625 0.3125q-0.34375 0.296875 -0.5625 0.828125q-0.203125 0.53125 -0.203125 1.109375q0 0.78125 0.390625 1.359375q0.40625 0.5625 2.75 1.171875q-2.390625 0.515625 -3.09375 1.1875q-0.703125 0.65625 -1.109375 1.546875q-0.390625 0.890625 -0.390625 1.6875q0 0.703125 0.328125 1.109375q0.34375 0.40625 1.078125 0.40625q0.828125 0 1.75 -0.46875q0.9375 -0.46875 1.53125 -1.546875l1.09375 0.484375q-0.9375 2.0625 -2.546875 3.0625q-1.59375 1.0 -3.421875 1.0z" fill-rule="nonzero"/></g></svg>